<svg id="Layer_1" data-name="Layer 1" xmlns="http://www.w3.org/2000/svg" viewBox="0 0 95.93 82.67"><defs><style>.cls-1{fill:#f66;}</style></defs><path class="cls-1" d="M98.23,87q-23.16-.83-47.81-.85T2.3,87c1.49-1,2.81-1.71,3.76-2.32a49,49,0,0,1,4.44-2.38l1.35-.67.71-.36.73-.31,3.17-1.29L18.15,79l1.78-.6,3.77-1.22c1.3-.39,2.65-.68,4-1s2.78-.7,4.24-.93l4.41-.77c1.51-.22,3-.34,4.59-.5l2.32-.24c.77-.06,1.54-.06,2.31-.1l4.67-.15,4.69.16c.77,0,1.55,0,2.33.1l2.31.23c1.53.16,3,.29,4.55.51l4.42.76c1.45.23,2.86.59,4.24.94s2.73.66,4,1.05l3.77,1.21,1.78.61,1.69.68L87.24,81l.74.32.71.35,1.35.68c2.47,1.23,4.44,2.37,4.44,2.37C95.47,85.25,96.75,86,98.23,87Z" transform="translate(-2.3 -4.35)"/><polygon class="cls-1" points="33.74 44.4 33.74 5.6 25.27 9.03 25.27 40.97 26.07 41.3 33.74 44.4"/><path class="cls-1" d="M43.52,51.77V75.85q3.12-.21,6.29-.24V36.68l2.23-.9,7.16-2.9,1.16-.47.37-.15,3.38-1.37,6.79-2.75,1.32-.52V13.37l-22.33-9-9.82,4V50.38l1.22.49Z" transform="translate(-2.3 -4.35)"/><path class="cls-1" d="M60.36,76.08V36.27l-7,2.82V75.65C55.73,75.71,58.05,75.86,60.36,76.08Z" transform="translate(-2.3 -4.35)"/><path class="cls-1" d="M91,83.74h.08V39.09L72.24,31.46h0l-8.11,3.28V76.49A105.77,105.77,0,0,1,91,83.74Z" transform="translate(-2.3 -4.35)"/><path class="cls-1" d="M17.77,80.84V52.71l-3.66,1.48V82.11C15.32,81.66,16.54,81.24,17.77,80.84Z" transform="translate(-2.3 -4.35)"/><path class="cls-1" d="M40,76.14v-22L36,52.6l-8.47-3.43L27,49l-5.7,2.3V79.73A104.66,104.66,0,0,1,40,76.14Z" transform="translate(-2.3 -4.35)"/><path class="cls-1" d="M107.72,93" transform="translate(-2.3 -4.35)"/></svg>